# AST/ASF file generated using VICON BodyLanguage
# -----------------------------------------------
:version 1.10
:name VICON
:units
  mass 1.0
  length 0.45
  angle deg
:documentation
   .ast/.asf automatically generated from VICON data using
   VICON BodyBuilder and BodyLanguage model FoxedUp or BRILLIANT.MOD
:root
   order TX TY TZ RX RY RZ
   axis XYZ
   position 0 0 0  
   orientation 0 0 0 
:bonedata
  begin
     id 1 
     name lhipjoint
     direction 0.566809 -0.746272 0.349008 
     length 2.40479 
     axis 0 0 0  XYZ
  end
  begin
     id 2 
     name lfemur
     direction 0.34202 -0.939693 0  
     length 7.1578  
     axis 0 0 20  XYZ
    dof rx ry rz
    limits (-160.0 20.0)
           (-70.0 70.0)
           (-60.0 70.0)
  end
  begin
     id 3 
     name ltibia
     direction 0.34202 -0.939693 0   
     length 7.49137   
     axis 0 0 20   XYZ
    dof rx
    limits (-10.0 170.0)
  end
  begin
     id 4 
     name lfoot
     direction 0.0665746 -0.182912 0.980873   
     length 2.36784   
     axis -90 7.62852e-016 20   XYZ
    dof rx rz
    limits (-45.0 90.0)
           (-70.0 20.0)
  end
  begin
     id 5 
     name ltoes
     direction 1.53601e-011 -4.22058e-011 1   
     length 1.18966   
     axis -90 7.62852e-016 20   XYZ
    dof rx
    limits (-90.0 20.0)
  end
  begin
     id 6 
     name rhipjoint
     direction -0.550236 -0.756381 0.353735   
     length 2.37265  
     axis 0 0 0  XYZ 
  end
  begin
     id 7 
     name rfemur
     direction -0.34202 -0.939693 0   
     length 7.43386   
     axis 0 0 -20   XYZ
    dof rx ry rz
    limits (-160.0 20.0)
           (-70.0 70.0)
           (-70.0 60.0)
  end
  begin
     id 8 
     name rtibia
     direction -0.34202 -0.939693 0   
     length 7.50908   
     axis 0 0 -20   XYZ
    dof rx
    limits (-10.0 170.0)
 end
 begin
     id 9 
     name rfoot
     direction -0.0683029 -0.187661 0.979856   
     length 2.41173  
     axis -90 -7.62852e-016 -20   XYZ
    dof rx rz
    limits (-45.0 90.0)
           (-20.0 70.0)
  end
  begin
     id 10 
     name rtoes
     direction -1.53528e-011 -4.21968e-011 1   
     length 1.21082   
     axis -90 -7.62852e-016 -20   XYZ
    dof rx
    limits (-90.0 20.0)
  end
  begin
     id 11 
     name lowerback
     direction 0.013823 0.995423 -0.0945635   
     length 2.04495   
     axis 0 0 0   XYZ
    dof rx ry rz
    limits (-20.0 45.0)
           (-30.0 30.0)
           (-30.0 30.0)
  end
  begin
     id 12 
     name upperback
     direction 0.0276657 0.9994 -0.020853   
     length 2.05008   
     axis 0 0 0   XYZ
    dof rx ry rz
    limits (-20.0 45.0)
           (-30.0 30.0)
           (-30.0 30.0)
  end
  begin
     id 13 
     name thorax
     direction 0.019782 0.999531 0.0233827   
     length 2.06488   
     axis 0 0 0   XYZ
    dof rx ry rz
    limits (-20.0 45.0)
           (-30.0 30.0)
           (-30.0 30.0)
  end
  begin
     id 14 
     name lowerneck
     direction -0.0308541 0.994709 0.0979874   
     length 1.75553   
     axis 0 0 0   XYZ
    dof rx ry rz
    limits (-20.0 45.0)
           (-30.0 30.0)
           (-30.0 30.0)
  end
  begin
     id 15 
     name upperneck
     direction 0.0588398 0.995804 -0.0700903   
     length 1.76878   
     axis 0 0 0   XYZ
    dof rx ry rz
    limits (-20.0 45.0)
           (-30.0 30.0)
           (-30.0 30.0)
  end
  begin
     id 16
     name head
     direction 0.0209966 0.999159 -0.0352225  
     length 1.77193  
     axis 0 0 0   XYZ
    dof rx ry rz
    limits (-20.0 45.0)
           (-30.0 30.0)
           (-30.0 30.0)
  end
  begin
     id 17 
     name lclavicle
     direction 0.938182 0.335073 -0.0868338  
     length 3.58396  
     axis 0 0 0   XYZ
    dof ry rz
    limits (-20.0 10.0)
           (0.0 20.0)
  end
  begin
     id 18 
     name lhumerus
     direction 1 -4.48971e-011 -1.26313e-017   
     length 4.983   
     axis 180 -30 -90   XYZ
    dof rx ry rz
    limits (-60.0 90.0)
           (-90.0 90.0)
           (-90.0 90.0)
  end
  begin
     id 19
     name lradius
     direction 1 -4.48948e-011 -5.89033e-027   
     length 3.48356   
     axis 180 -30 -90   XYZ
    dof rx
    limits (-10.0 170.0)
  end
  begin
     id 20
     name lwrist
     direction 1 -4.48977e-011 -1.48983e-026   
     length 1.74178   
     axis 9.0955e-015 90 90   XYZ
    dof ry
    limits (-180.0 0.0)
 end
  begin
     id 21 
     name lhand
     direction 1 -4.49046e-011 -2.98066e-026   
     length 0.715259   
     axis 1.90115e-014 90 90   XYZ
    dof rx rz
    limits (-90.0 90.0)
           (-45.0 45.0)
  end
  begin
     id 22 
     name lfingers
     direction 1 -4.48907e-011 -5.95731e-026   
     length 0.576661   
     axis 3.80223e-014 90 90   XYZ
    dof rx
    limits (0.0 90.0)
  end
  begin
     id 23
     name lthumb
     direction 0.707107 -6.34963e-011 0.707107   
     length 0.827973   
     axis -90 45 -3.84942e-014   XYZ
    dof rx rz
    limits (-45.0 45.0)
           (-45.0 45.0)
  end
  begin
     id 24 
     name rclavicle
     direction -0.909637 0.398485 -0.11735   
     length 3.44819  
     axis 0 0 0   XYZ 
    dof ry rz
    limits (-10.0 20.0)
           (-20.0 0.0)
  end
  begin
     id 25 
     name rhumerus
     direction -1 -4.48978e-011 -1.09333e-027  
     length 5.2419   
     axis 180 30 90   XYZ
    dof rx ry rz
    limits (-90.0 60.0)
           (-90.0 90.0)
           (-90.0 90.0)
  end
  begin
     id 26 
     name rradius
     direction -1 -4.48953e-011 -7.61841e-027   
     length 3.44417   
     axis 180 30 90   XYZ
    dof rx
    limits (-10.0 170.0)
  end
  begin
     id 27 
     name rwrist
     direction -1 -4.48977e-011 -1.48983e-026   
     length 1.72209   
     axis 9.0955e-015 -90 -90   XYZ
    dof ry
    limits (-180.0 0.0)
  end
  begin
     id 28
     name rhand
     direction -1 -4.49027e-011 -2.98038e-026   
     length 0.622529   
     axis 1.90115e-014 -90 -90   XYZ
    dof rx rz
    limits (-90.0 90.0)
           (-45.0 45.0)
  end
  begin
     id 29
     name rfingers
     direction -1 -4.48838e-011 -5.95531e-026   
     length 0.501899   
     axis 3.80223e-014 -90 -90   XYZ
    dof rx
    limits (0.0 90.0)
  end
  begin
     id 30
     name rthumb
     direction -0.707107 -6.34937e-011 0.707107   
     length 0.720629   
     axis -90 -45 3.84942e-014   XYZ
    dof rx rz
    limits (-45.0 45.0)
           (-45.0 45.0)
  end
:hierarchy
  begin
    root lhipjoint rhipjoint lowerback
    lhipjoint lfemur
    lfemur ltibia
    ltibia lfoot
    lfoot ltoes
    rhipjoint rfemur
    rfemur rtibia
    rtibia rfoot
    rfoot rtoes
    lowerback upperback
    upperback thorax
    thorax lowerneck lclavicle rclavicle
    lowerneck upperneck
    upperneck head
    lclavicle lhumerus
    lhumerus lradius
    lradius lwrist
    lwrist lhand lthumb
    lhand lfingers
    rclavicle rhumerus
    rhumerus rradius
    rradius rwrist
    rwrist rhand rthumb
    rhand rfingers
  end

#!OML:ASF F:\VICON\USERDATA\Patient Classification 1\PLAYGROUND\JustinFriday\JustinFriday.ASF
:FULLY-SPECIFIED
:DEGREES
941
root 12.9234 27.3673 45.3653 -360.203 -179.069 6.44062
lowerback 2.08134 0.0880006 -2.552
upperback 0.0999041 0.0279454 3.04563
thorax -1.06906 0.00633314 4.57414
lowerneck 6.80414 4.76611 -6.10114
upperneck -5.96269 5.51463 -1.87029
head -3.25347 2.90665 0.175991
rclavicle -2.67117e-016 1.78906e-014
rhumerus 53.4894 -2.0256 -82.0494
rradius 82.035
rwrist 17.5673
rhand -29.1938 -6.76053
rfingers 7.12502
rthumb -2.53883 -36.7252
lclavicle -2.67117e-016 1.78906e-014
lhumerus 61.8506 -13.8573 84.365
lradius 68.6055
lwrist -38.2286
lhand -25.3556 -15.7533
lfingers 7.12502
lthumb 1.16811 14.2233
rfemur -8.35215 -0.22639 28.1686
rtibia 29.9392
rfoot -27.9697 -11.4201
rtoes 9.56886
lfemur -6.70944 4.69288 -14.5021
ltibia 30.455
lfoot -28.7726 -3.80396
ltoes 2.40055
942
root 12.9022 27.3695 45.3729 -360.152 -178.73 6.54956
lowerback 1.94397 -0.0341893 -2.46305
upperback 0.0155576 -0.136598 3.202
thorax -1.06249 -0.0781764 4.69116
lowerneck 6.85595 4.78859 -6.16038
upperneck -5.71839 5.51737 -2.08335
head -3.17365 2.90765 0.119603
rclavicle -1.92573e-016 -9.93923e-016
rhumerus 53.4239 -1.93865 -81.5752
rradius 81.4823
rwrist 17.508
rhand -29.3925 -6.85484
rfingers 7.12502
rthumb -2.73079 -36.8171
lclavicle -1.92573e-016 -9.93923e-016
lhumerus 61.6863 -13.8159 84.609
lradius 68.3388
lwrist -38.1973
lhand -25.3745 -15.6911
lfingers 7.12502
lthumb 1.14989 14.2856
rfemur -8.44878 -0.574809 28.217
rtibia 29.9443
rfoot -28.0441 -11.4656
rtoes 9.11232
lfemur -6.88002 4.50462 -14.438
ltibia 30.4466
lfoot -28.7721 -3.95409
ltoes 0.488881
943
root 12.9028 27.3637 45.3911 -360.312 -178.956 6.71891
lowerback 2.16002 0.060785 -2.58706
upperback -0.0383027 -0.0194529 3.36473
thorax -1.25114 -0.0166248 4.92973
lowerneck 7.11875 4.74836 -5.99736
upperneck -5.95149 5.41545 -2.42662
head -3.28548 2.86938 -0.0246733
rclavicle -4.43849e-015 2.32578e-014
rhumerus 53.2592 -1.93137 -81.4832
rradius 81.3678
rwrist 17.6464
rhand -29.2953 -6.937
rfingers 7.12502
rthumb -2.63686 -36.9004
lclavicle -4.43849e-015 2.32578e-014
lhumerus 61.5292 -13.8677 84.7285
lradius 68.1104
lwrist -38.145
lhand -25.3592 -15.5362
lfingers 7.12502
lthumb 1.16465 14.4404
rfemur -8.33994 -0.295655 28.4174
rtibia 29.9947
rfoot -28.1496 -11.4945
rtoes 9.17248
lfemur -6.70664 4.61374 -14.2308
ltibia 30.4267
lfoot -28.8393 -4.02943
ltoes 0.270743
944
root 12.8932 27.3606 45.4185 -360.359 -178.543 6.71253
lowerback 2.42374 -0.0552274 -2.67549
upperback -0.155542 -0.178701 3.41422
thorax -1.50297 -0.088659 5.03961
lowerneck 7.32758 4.69218 -5.77483
upperneck -6.29405 5.29641 -2.78637
head -3.42375 2.82487 -0.18479
rclavicle 9.7684e-016 -2.54444e-014
rhumerus 53.1124 -1.98075 -81.3377
rradius 81.1732
rwrist 17.6921
rhand -29.0798 -6.95068
rfingers 7.12502
rthumb -2.42878 -36.9166
lclavicle 9.7684e-016 -2.54444e-014
lhumerus 61.4699 -13.917 84.8484
lradius 67.9048
lwrist -38.1586
lhand -25.2679 -15.3752
lfingers 7.12502
lthumb 1.25282 14.6009
rfemur -8.41504 -0.520788 28.3723
rtibia 30.0039
rfoot -28.1199 -11.5734
rtoes 9.58892
lfemur -6.83161 4.03359 -14.3209
ltibia 30.4129
lfoot -28.7636 -4.06056
ltoes 1.88513
945
root 12.8986 27.3515 45.4506 -360.593 -178.699 6.63514
lowerback 2.88483 0.0260158 -3.09905
upperback -0.180329 -0.0897901 3.53014
thorax -1.79706 -0.0335836 5.40337
lowerneck 7.10853 4.81699 -5.98905
upperneck -6.01147 5.47351 -2.69968
head -3.29622 2.9049 -0.11878
rclavicle 2.33494e-015 -2.68359e-015
rhumerus 53.0318 -1.98162 -81.0805
rradius 80.9376
rwrist 17.4112
rhand -28.9445 -6.88753
rfingers 7.12502
rthumb -2.29812 -36.8549
lclavicle 2.33494e-015 -2.68359e-015
lhumerus 61.4941 -13.9134 85.069
lradius 67.6911
lwrist -38.3509
lhand -25.0107 -15.1784
lfingers 7.12502
lthumb 1.50125 14.7961
rfemur -8.28295 -0.309885 28.3
rtibia 30.0438
rfoot -28.0296 -11.6568
rtoes 9.59927
lfemur -6.6459 3.90707 -14.4251
ltibia 30.3975
lfoot -28.714 -3.92471
ltoes 4.88735
946
root 12.8926 27.3568 45.4718 -360.447 -178.54 6.71961
lowerback 2.67153 -0.0199932 -3.10923
upperback -0.172858 -0.150879 3.60574
thorax -1.66233 -0.0687709 5.48965
lowerneck 6.53971 4.98213 -6.3288
upperneck -5.31662 5.76889 -2.30515
head -2.97877 3.02601 0.078389
rclavicle -4.82053e-015 2.0276e-014
rhumerus 53.1621 -2.03949 -80.9922
rradius 80.7233
rwrist 17.2113
rhand -28.8121 -6.86603
rfingers 7.12502
rthumb -2.17021 -36.8347
lclavicle -4.82053e-015 2.0276e-014
lhumerus 61.7193 -13.9441 85.1908
lradius 67.4749
lwrist -38.5533
lhand -24.6065 -15.0066
lfingers 7.12502
lthumb 1.89161 14.9647
rfemur -8.55099 -0.366018 28.3687
rtibia 30.0853
rfoot -28.0896 -11.7992
rtoes 9.21297
lfemur -6.91997 3.656 -14.399
ltibia 30.3774
lfoot -28.6755 -3.84996
ltoes 2.62249
947
root 12.8768 27.3522 45.4868 -360.634 -178.31 6.74511
lowerback 2.52899 -0.0874536 -3.04719
upperback 0.010204 -0.24258 3.62821
thorax -1.38278 -0.127055 5.47876
lowerneck 6.25594 5.01454 -6.33397
upperneck -4.96009 5.84981 -2.28636
head -2.80543 3.05465 0.0949476
rclavicle -4.87022e-015 1.2921e-015
rhumerus 53.3814 -2.11552 -80.9797
rradius 80.5228
rwrist 17.236
rhand -28.4846 -7.08138
rfingers 7.12502
rthumb -1.85397 -37.0531
lclavicle -4.87022e-015 1.2921e-015
lhumerus 61.9368 -13.9537 85.1504
lradius 67.3439
lwrist -38.5062
lhand -24.2195 -14.8093
lfingers 7.12502
lthumb 2.26533 15.1585
rfemur -8.41871 -0.657934 28.337
rtibia 30.0909
rfoot -28.1285 -11.8334
rtoes 8.91957
lfemur -6.8003 3.43498 -14.4169
ltibia 30.3872
lfoot -28.7255 -3.91088
ltoes 1.52445
948
root 12.8762 27.3409 45.4972 -360.908 -178.965 6.77333
lowerback 2.45447 0.131633 -3.24836
upperback 0.153073 0.0388745 3.75839
thorax -1.22744 0.00606311 5.7199
lowerneck 6.44716 5.06727 -6.40479
upperneck -5.01089 5.87989 -2.41826
head -2.8576 3.07479 0.0571107
rclavicle 1.69743e-015 7.15625e-015
rhumerus 53.4 -2.09237 -80.7897
rradius 80.2388
rwrist 17.2002
rhand -28.3179 -7.18885
rfingers 7.12502
rthumb -1.69292 -37.1619
lclavicle 1.69743e-015 7.15625e-015
lhumerus 61.8568 -13.8921 85.1979
lradius 67.2498
lwrist -38.394
lhand -24.0337 -14.5715
lfingers 7.12502
lthumb 2.44486 15.3942
rfemur -8.12901 -0.259766 28.3828
rtibia 30.0921
rfoot -28.0034 -11.6844
rtoes 8.87611
lfemur -6.37165 3.96105 -14.3331
ltibia 30.392
lfoot -28.8348 -3.87055
ltoes 2.14125
949
root 12.8677 27.3487 45.5251 -360.741 -178.718 6.84152
lowerback 2.41564 0.0456346 -3.22362
upperback 0.0111728 -0.0761725 3.85948
thorax -1.33785 -0.0476918 5.81685
lowerneck 6.77932 5.15602 -6.5719
upperneck -5.27443 5.93281 -2.48263
head -3.0167 3.11324 0.0480721
rclavicle -2.85947e-015 1.50082e-014
rhumerus 53.3452 -2.05762 -80.5468
rradius 79.9493
rwrist 16.9435
rhand -28.3028 -7.13981
rfingers 7.12502
rthumb -1.67833 -37.113
lclavicle -2.85947e-015 1.50082e-014
lhumerus 61.7344 -13.8486 85.419
lradius 66.999
lwrist -38.5548
lhand -23.8117 -14.2619
lfingers 7.12502
lthumb 2.65918 15.7012
rfemur -8.43936 -0.315422 28.4196
rtibia 30.108
rfoot -27.9734 -11.7963
rtoes 8.72584
lfemur -6.72692 3.62719 -14.3573
ltibia 30.3825
lfoot -28.7669 -3.6112
ltoes 2.90356
